# xmcd
#
# Track frame offsets: 
#        150
#        15067
#        25579
#        52315
#        69322
#        82887
#        94684
#        113180
#        129336
#        144844
#        160493
#        173751
#        190336
#        207848
#        223265
#        245878
#        264189
#        281507
#        306814
#        321428
#
# Disc length: 4518 seconds
#
# Revision: 0
# Processed by: cddbd v1.5.2PL0 Copyright (c) Steve Scherf et al.
# Submitted via: ExactAudioCopy v1.1
#
DISCID=1611a414
DTITLE=Various Artist - 1000 Klassiekers Radio 2 Vol. 05 - CD 3
DYEAR=2013
DGENRE=Pop
TTITLE0=Will Tura - Het Kan Niet Zijn
TTITLE1=Paul Anka - Diana
TTITLE2=Leonard Cohen - Take This Waltz
TTITLE3=The Jacksons - Shake Your Body (Down To The Ground)
TTITLE4=Gloria Gaynor - Never Can Say Goodbye
TTITLE5=Ferre Grignard - Drunken Sailor
TTITLE6=Roland Kaiser - Santa Maria
TTITLE7=Ottawan - D.I.S.C.O.
TTITLE8=Kim Wilde - Kids In America
TTITLE9=The Trammps - Disco Inferno
TTITLE10=Gene Kelly - Singin' In The Rain
TTITLE11=Roger Whittaker - The Last Farewell
TTITLE12=2 Belgen - Opération Coup De Poing
TTITLE13=Dan Hartman - Instant Replay
TTITLE14=George Benson - Give Me The Night
TTITLE15=Daryl Hall and John Oates - Out Of Touch
TTITLE16=Pointer Sisters - I'm So Excited
TTITLE17=Billy Paul - Only The Strong Survive
TTITLE18=The Union Gap Feat. Gary Puckett - Young Girl
TTITLE19=Talk Talk - It's My Life
EXTD=
EXTT0=
EXTT1=
EXTT2=
EXTT3=
EXTT4=
EXTT5=
EXTT6=
EXTT7=
EXTT8=
EXTT9=
EXTT10=
EXTT11=
EXTT12=
EXTT13=
EXTT14=
EXTT15=
EXTT16=
EXTT17=
EXTT18=
EXTT19=
PLAYORDER=
